<svg width="801" height="222" viewBox="0 0 801 222" fill="none" xmlns="http://www.w3.org/2000/svg">
<path d="M0.000110567 218.182V-0.000184059H39.5243V185.05H135.618V218.182H0.000110567ZM307.458 -0.000184059H346.982V142.542C346.982 158.167 343.288 171.91 335.902 183.771C328.587 195.632 318.288 204.9 305.007 211.577C291.726 218.182 276.208 221.484 258.452 221.484C240.625 221.484 225.071 218.182 211.79 211.577C198.509 204.9 188.21 195.632 180.895 183.771C173.58 171.91 169.922 158.167 169.922 142.542V-0.000184059H209.446V139.24C209.446 148.331 211.435 156.427 215.412 163.53C219.46 170.632 225.142 176.207 232.457 180.256C239.773 184.233 248.438 186.221 258.452 186.221C268.466 186.221 277.131 184.233 284.446 180.256C291.832 176.207 297.514 170.632 301.492 163.53C305.469 156.427 307.458 148.331 307.458 139.24V-0.000184059ZM569.238 -0.000184059V218.182H534.082L431.277 69.5666H429.466V218.182H389.942V-0.000184059H425.311L528.01 148.721H529.927V-0.000184059H569.238ZM640.323 218.182H598.136L674.947 -0.000184059H723.739L800.657 218.182H758.47L700.195 44.7441H698.491L640.323 218.182ZM641.708 132.635H756.765V164.382H641.708V132.635Z" fill="url(#paint0_linear_47_2)"/>
<defs>
<linearGradient id="paint0_linear_47_2" x1="808.48" y1="108.682" x2="-21.5198" y2="108.682" gradientUnits="userSpaceOnUse">
<stop stop-color="#AD46FF"/>
<stop offset="1" stop-color="#F6339A"/>
</linearGradient>
</defs>
</svg>
